<svg version="1.1" xmlns="http://www.w3.org/2000/svg" xmlns:xlink="http://www.w3.org/1999/xlink" width="1293" height="739"><defs/><g><g transform="translate(-6,-158) scale(1,1)"><rect fill="#C0C0C0" stroke="none" x="423" y="175" width="132.93798828125" height="132" opacity="0.2"/></g><g transform="translate(-6,-158) scale(1,1)"><rect fill="#ffffff" stroke="none" x="416" y="168" width="132.93798828125" height="132"/></g><g transform="translate(-6,-158) scale(1,1)"><path fill="none" stroke="#000000" d="M 416 168 L 548.93798828125 168 L 548.93798828125 300 L 416 300 L 416 168 Z Z" stroke-miterlimit="10"/></g><g transform="translate(-6,-158) scale(1,1)"><path fill="none" stroke="#000000" d="M 416 193 L 548.93798828125 193" stroke-miterlimit="10"/></g><g transform="translate(-6,-158) scale(1,1)"><path fill="none" stroke="#000000" d="M 416 246 L 548.93798828125 246" stroke-miterlimit="10"/></g><g transform="translate(-6,-158) scale(1,1)"><g><path fill="none" stroke="none"/><text fill="#000000" stroke="none" font-family="Arial" font-size="13px" font-style="normal" font-weight="bold" text-decoration="none" x="453.199951171875" y="187.5">Personnel</text></g></g><g transform="translate(-6,-158) scale(1,1)"><g><path fill="none" stroke="none"/><text fill="#000000" stroke="none" font-family="Arial" font-size="13px" font-style="normal" font-weight="normal" text-decoration="none" x="421" y="210.5">+dateNaissance</text></g></g><g transform="translate(-6,-158) scale(1,1)"><g><path fill="none" stroke="none"/><text fill="#000000" stroke="none" font-family="Arial" font-size="13px" font-style="normal" font-weight="normal" text-decoration="none" x="421" y="225.5">+adresse</text></g></g><g transform="translate(-6,-158) scale(1,1)"><g><path fill="none" stroke="none"/><text fill="#000000" stroke="none" font-family="Arial" font-size="13px" font-style="normal" font-weight="normal" text-decoration="none" x="421" y="240.5">+dateRecrutement</text></g></g><g transform="translate(-6,-158) scale(1,1)"><rect fill="#C0C0C0" stroke="none" x="327" y="431" width="144" height="64" opacity="0.2"/></g><g transform="translate(-6,-158) scale(1,1)"><rect fill="#ffffff" stroke="none" x="320" y="424" width="144" height="64"/></g><g transform="translate(-6,-158) scale(1,1)"><path fill="none" stroke="#000000" d="M 320 424 L 464 424 L 464 488 L 320 488 L 320 424 Z Z" stroke-miterlimit="10"/></g><g transform="translate(-6,-158) scale(1,1)"><path fill="none" stroke="#000000" d="M 320 449 L 464 449" stroke-miterlimit="10"/></g><g transform="translate(-6,-158) scale(1,1)"><path fill="none" stroke="#000000" d="M 320 459 L 464 459" stroke-miterlimit="10"/></g><g transform="translate(-6,-158) scale(1,1)"><g><path fill="none" stroke="none"/><text fill="#000000" stroke="none" font-family="Arial" font-size="13px" font-style="normal" font-weight="bold" text-decoration="none" x="358.3955078125" y="443.5">Scientifique</text></g></g><g transform="translate(-6,-158) scale(1,1)"><rect fill="#C0C0C0" stroke="none" x="567" y="431" width="160" height="64" opacity="0.2"/></g><g transform="translate(-6,-158) scale(1,1)"><rect fill="#ffffff" stroke="none" x="560" y="424" width="160" height="64"/></g><g transform="translate(-6,-158) scale(1,1)"><path fill="none" stroke="#000000" d="M 560 424 L 720 424 L 720 488 L 560 488 L 560 424 Z Z" stroke-miterlimit="10"/></g><g transform="translate(-6,-158) scale(1,1)"><path fill="none" stroke="#000000" d="M 560 449 L 720 449" stroke-miterlimit="10"/></g><g transform="translate(-6,-158) scale(1,1)"><path fill="none" stroke="#000000" d="M 560 472 L 720 472" stroke-miterlimit="10"/></g><g transform="translate(-6,-158) scale(1,1)"><g><path fill="none" stroke="none"/><text fill="#000000" stroke="none" font-family="Arial" font-size="13px" font-style="normal" font-weight="bold" text-decoration="none" x="611.819580078125" y="443.5">Doctorant</text></g></g><g transform="translate(-6,-158) scale(1,1)"><g><path fill="none" stroke="none"/><text fill="#000000" stroke="none" font-family="Arial" font-size="13px" font-style="normal" font-weight="normal" text-decoration="none" x="565" y="466.5">+dateSoutenance</text></g></g><g transform="translate(-6,-158) scale(1,1)"><rect fill="#C0C0C0" stroke="none" x="87" y="343" width="184" height="72" opacity="0.2"/></g><g transform="translate(-6,-158) scale(1,1)"><rect fill="#ffffff" stroke="none" x="80" y="336" width="184" height="72"/></g><g transform="translate(-6,-158) scale(1,1)"><path fill="none" stroke="#000000" d="M 80 336 L 264 336 L 264 408 L 80 408 L 80 336 Z Z" stroke-miterlimit="10"/></g><g transform="translate(-6,-158) scale(1,1)"><path fill="none" stroke="#000000" d="M 80 361 L 264 361" stroke-miterlimit="10"/></g><g transform="translate(-6,-158) scale(1,1)"><path fill="none" stroke="#000000" d="M 80 384 L 264 384" stroke-miterlimit="10"/></g><g transform="translate(-6,-158) scale(1,1)"><g><path fill="none" stroke="none"/><text fill="#000000" stroke="none" font-family="Arial" font-size="13px" font-style="normal" font-weight="bold" text-decoration="none" x="109.12646484375" y="355.5">ChercheurEnseignant</text></g></g><g transform="translate(-6,-158) scale(1,1)"><g><path fill="none" stroke="none"/><text fill="#000000" stroke="none" font-family="Arial" font-size="13px" font-style="normal" font-weight="normal" text-decoration="none" x="85" y="378.5">+échelon</text></g></g><g transform="translate(-6,-158) scale(1,1)"><rect fill="#C0C0C0" stroke="none" x="207" y="207" width="96" height="64" opacity="0.2"/></g><g transform="translate(-6,-158) scale(1,1)"><rect fill="#ffffff" stroke="none" x="200" y="200" width="96" height="64"/></g><g transform="translate(-6,-158) scale(1,1)"><path fill="none" stroke="#000000" d="M 200 200 L 296 200 L 296 264 L 200 264 L 200 200 Z Z" stroke-miterlimit="10"/></g><g transform="translate(-6,-158) scale(1,1)"><path fill="none" stroke="#000000" d="M 200 225 L 296 225" stroke-miterlimit="10"/></g><g transform="translate(-6,-158) scale(1,1)"><path fill="none" stroke="#000000" d="M 200 235 L 296 235" stroke-miterlimit="10"/></g><g transform="translate(-6,-158) scale(1,1)"><g><path fill="none" stroke="none"/><text fill="#000000" stroke="none" font-family="Arial" font-size="13px" font-style="normal" font-weight="bold" text-decoration="none" x="217.65185546875" y="219.5">Chercheur</text></g></g><g transform="translate(-6,-158) scale(1,1)"><rect fill="#C0C0C0" stroke="none" x="23" y="535" width="108.35986328125" height="102" opacity="0.2"/></g><g transform="translate(-6,-158) scale(1,1)"><rect fill="#ffffff" stroke="none" x="16" y="528" width="108.35986328125" height="102"/></g><g transform="translate(-6,-158) scale(1,1)"><path fill="none" stroke="#000000" d="M 16 528 L 124.35986328125 528 L 124.35986328125 630 L 16 630 L 16 528 Z Z" stroke-miterlimit="10"/></g><g transform="translate(-6,-158) scale(1,1)"><path fill="none" stroke="#000000" d="M 16 553 L 124.35986328125 553" stroke-miterlimit="10"/></g><g transform="translate(-6,-158) scale(1,1)"><path fill="none" stroke="#000000" d="M 16 621 L 124.35986328125 621" stroke-miterlimit="10"/></g><g transform="translate(-6,-158) scale(1,1)"><g><path fill="none" stroke="none"/><text fill="#000000" stroke="none" font-family="Arial" font-size="13px" font-style="normal" font-weight="bold" text-decoration="none" x="29.35498046875" y="547.5">Etablissement</text></g></g><g transform="translate(-6,-158) scale(1,1)"><g><path fill="none" stroke="none"/><text fill="#000000" stroke="none" font-family="Arial" font-size="13px" font-style="normal" font-weight="normal" text-decoration="none" x="21" y="570.5">+idEtablissement</text></g></g><g transform="translate(-6,-158) scale(1,1)"><g><path fill="none" stroke="none"/><text fill="#000000" stroke="none" font-family="Arial" font-size="13px" font-style="normal" font-weight="normal" text-decoration="none" x="21" y="585.5">+nom</text></g></g><g transform="translate(-6,-158) scale(1,1)"><g><path fill="none" stroke="none"/><text fill="#000000" stroke="none" font-family="Arial" font-size="13px" font-style="normal" font-weight="normal" text-decoration="none" x="21" y="600.5">+acronyme</text></g></g><g transform="translate(-6,-158) scale(1,1)"><g><path fill="none" stroke="none"/><text fill="#000000" stroke="none" font-family="Arial" font-size="13px" font-style="normal" font-weight="normal" text-decoration="none" x="21" y="615.5">+adresse</text></g></g><g transform="translate(-6,-158) scale(1,1)"><rect fill="#C0C0C0" stroke="none" x="551" y="567" width="203.0224609375" height="177" opacity="0.2"/></g><g transform="translate(-6,-158) scale(1,1)"><rect fill="#ffffff" stroke="none" x="544" y="560" width="203.0224609375" height="177"/></g><g transform="translate(-6,-158) scale(1,1)"><path fill="none" stroke="#000000" d="M 544 560 L 747.0224609375 560 L 747.0224609375 737 L 544 737 L 544 560 Z Z" stroke-miterlimit="10"/></g><g transform="translate(-6,-158) scale(1,1)"><path fill="none" stroke="#000000" d="M 544 585 L 747.0224609375 585" stroke-miterlimit="10"/></g><g transform="translate(-6,-158) scale(1,1)"><path fill="none" stroke="#000000" d="M 544 698 L 747.0224609375 698" stroke-miterlimit="10"/></g><g transform="translate(-6,-158) scale(1,1)"><g><path fill="none" stroke="none"/><text fill="#000000" stroke="none" font-family="Arial" font-size="13px" font-style="normal" font-weight="bold" text-decoration="none" x="628.53125" y="579.5">Projet</text></g></g><g transform="translate(-6,-158) scale(1,1)"><g><path fill="none" stroke="none"/><text fill="#000000" stroke="none" font-family="Arial" font-size="13px" font-style="normal" font-weight="normal" text-decoration="none" x="549" y="602.5">+idProjet</text></g></g><g transform="translate(-6,-158) scale(1,1)"><g><path fill="none" stroke="none"/><text fill="#000000" stroke="none" font-family="Arial" font-size="13px" font-style="normal" font-weight="normal" text-decoration="none" x="549" y="617.5">+titre</text></g></g><g transform="translate(-6,-158) scale(1,1)"><g><path fill="none" stroke="none"/><text fill="#000000" stroke="none" font-family="Arial" font-size="13px" font-style="normal" font-weight="normal" text-decoration="none" x="549" y="632.5">+acronyme</text></g></g><g transform="translate(-6,-158) scale(1,1)"><g><path fill="none" stroke="none"/><text fill="#000000" stroke="none" font-family="Arial" font-size="13px" font-style="normal" font-weight="normal" text-decoration="none" x="549" y="647.5">+annéeDébut</text></g></g><g transform="translate(-6,-158) scale(1,1)"><g><path fill="none" stroke="none"/><text fill="#000000" stroke="none" font-family="Arial" font-size="13px" font-style="normal" font-weight="normal" text-decoration="none" x="549" y="662.5">+durée</text></g></g><g transform="translate(-6,-158) scale(1,1)"><g><path fill="none" stroke="none"/><text fill="#000000" stroke="none" font-family="Arial" font-size="13px" font-style="normal" font-weight="normal" text-decoration="none" x="549" y="677.5">+coûtGlobal</text></g></g><g transform="translate(-6,-158) scale(1,1)"><g><path fill="none" stroke="none"/><text fill="#000000" stroke="none" font-family="Arial" font-size="13px" font-style="normal" font-weight="normal" text-decoration="none" x="549" y="692.5">+budgetLAAS</text></g></g><g transform="translate(-6,-158) scale(1,1)"><rect fill="#C0C0C0" stroke="none" x="887" y="687" width="86.68896484375" height="87" opacity="0.2"/></g><g transform="translate(-6,-158) scale(1,1)"><rect fill="#ffffff" stroke="none" x="880" y="680" width="86.68896484375" height="87"/></g><g transform="translate(-6,-158) scale(1,1)"><path fill="none" stroke="#000000" d="M 880 680 L 966.68896484375 680 L 966.68896484375 767 L 880 767 L 880 680 Z Z" stroke-miterlimit="10"/></g><g transform="translate(-6,-158) scale(1,1)"><path fill="none" stroke="#000000" d="M 880 705 L 966.68896484375 705" stroke-miterlimit="10"/></g><g transform="translate(-6,-158) scale(1,1)"><path fill="none" stroke="#000000" d="M 880 758 L 966.68896484375 758" stroke-miterlimit="10"/></g><g transform="translate(-6,-158) scale(1,1)"><g><path fill="none" stroke="none"/><text fill="#000000" stroke="none" font-family="Arial" font-size="13px" font-style="normal" font-weight="bold" text-decoration="none" x="893.35498046875" y="699.5">Partenaire</text></g></g><g transform="translate(-6,-158) scale(1,1)"><g><path fill="none" stroke="none"/><text fill="#000000" stroke="none" font-family="Arial" font-size="13px" font-style="normal" font-weight="normal" text-decoration="none" x="885" y="722.5">+idPartenaire</text></g></g><g transform="translate(-6,-158) scale(1,1)"><g><path fill="none" stroke="none"/><text fill="#000000" stroke="none" font-family="Arial" font-size="13px" font-style="normal" font-weight="normal" text-decoration="none" x="885" y="737.5">+nom</text></g></g><g transform="translate(-6,-158) scale(1,1)"><g><path fill="none" stroke="none"/><text fill="#000000" stroke="none" font-family="Arial" font-size="13px" font-style="normal" font-weight="normal" text-decoration="none" x="885" y="752.5">+pays</text></g></g><g transform="translate(-6,-158) scale(1,1)"><rect fill="#C0C0C0" stroke="none" x="463" y="807" width="92.4716796875" height="87" opacity="0.2"/></g><g transform="translate(-6,-158) scale(1,1)"><rect fill="#ffffff" stroke="none" x="456" y="800" width="92.4716796875" height="87"/></g><g transform="translate(-6,-158) scale(1,1)"><path fill="none" stroke="#000000" d="M 456 800 L 548.4716796875 800 L 548.4716796875 887 L 456 887 L 456 800 Z Z" stroke-miterlimit="10"/></g><g transform="translate(-6,-158) scale(1,1)"><path fill="none" stroke="#000000" d="M 456 825 L 548.4716796875 825" stroke-miterlimit="10"/></g><g transform="translate(-6,-158) scale(1,1)"><path fill="none" stroke="#000000" d="M 456 878 L 548.4716796875 878" stroke-miterlimit="10"/></g><g transform="translate(-6,-158) scale(1,1)"><g><path fill="none" stroke="none"/><text fill="#000000" stroke="none" font-family="Arial" font-size="13px" font-style="normal" font-weight="bold" text-decoration="none" x="469.35498046875" y="819.5">Evenement</text></g></g><g transform="translate(-6,-158) scale(1,1)"><g><path fill="none" stroke="none"/><text fill="#000000" stroke="none" font-family="Arial" font-size="13px" font-style="normal" font-weight="normal" text-decoration="none" x="461" y="842.5">+idEvenement</text></g></g><g transform="translate(-6,-158) scale(1,1)"><g><path fill="none" stroke="none"/><text fill="#000000" stroke="none" font-family="Arial" font-size="13px" font-style="normal" font-weight="normal" text-decoration="none" x="461" y="857.5">+dateDébut</text></g></g><g transform="translate(-6,-158) scale(1,1)"><g><path fill="none" stroke="none"/><text fill="#000000" stroke="none" font-family="Arial" font-size="13px" font-style="normal" font-weight="normal" text-decoration="none" x="461" y="872.5">+dateFin</text></g></g><g transform="translate(-6,-158) scale(1,1)"><rect fill="#C0C0C0" stroke="none" x="655" y="807" width="107.26171875" height="72" opacity="0.2"/></g><g transform="translate(-6,-158) scale(1,1)"><rect fill="#ffffff" stroke="none" x="648" y="800" width="107.26171875" height="72"/></g><g transform="translate(-6,-158) scale(1,1)"><path fill="none" stroke="#000000" d="M 648 800 L 755.26171875 800 L 755.26171875 872 L 648 872 L 648 800 Z Z" stroke-miterlimit="10"/></g><g transform="translate(-6,-158) scale(1,1)"><path fill="none" stroke="#000000" d="M 648 825 L 755.26171875 825" stroke-miterlimit="10"/></g><g transform="translate(-6,-158) scale(1,1)"><path fill="none" stroke="#000000" d="M 648 835 L 755.26171875 835" stroke-miterlimit="10"/></g><g transform="translate(-6,-158) scale(1,1)"><g><path fill="none" stroke="none"/><text fill="#000000" stroke="none" font-family="Arial" font-size="13px" font-style="normal" font-weight="bold" text-decoration="none" x="688.989501953125" y="819.5">JPO</text></g></g><g transform="translate(-6,-158) scale(1,1)"><rect fill="#C0C0C0" stroke="none" x="247" y="807" width="136.537109375" height="71" opacity="0.2"/></g><g transform="translate(-6,-158) scale(1,1)"><rect fill="#ffffff" stroke="none" x="240" y="800" width="136.537109375" height="71"/></g><g transform="translate(-6,-158) scale(1,1)"><path fill="none" stroke="#000000" d="M 240 800 L 376.537109375 800 L 376.537109375 871 L 240 871 L 240 800 Z Z" stroke-miterlimit="10"/></g><g transform="translate(-6,-158) scale(1,1)"><path fill="none" stroke="#000000" d="M 240 825 L 376.537109375 825" stroke-miterlimit="10"/></g><g transform="translate(-6,-158) scale(1,1)"><path fill="none" stroke="#000000" d="M 240 848 L 376.537109375 848" stroke-miterlimit="10"/></g><g transform="translate(-6,-158) scale(1,1)"><g><path fill="none" stroke="none"/><text fill="#000000" stroke="none" font-family="Arial" font-size="13px" font-style="normal" font-weight="bold" text-decoration="none" x="274.6640625" y="819.5">Conférence</text></g></g><g transform="translate(-6,-158) scale(1,1)"><g><path fill="none" stroke="none"/><text fill="#000000" stroke="none" font-family="Arial" font-size="13px" font-style="normal" font-weight="normal" text-decoration="none" x="245" y="842.5">+nbInscrit</text></g></g><g transform="translate(-6,-158) scale(1,1)"><rect fill="#C0C0C0" stroke="none" x="983" y="591" width="184.25244140625" height="132" opacity="0.2"/></g><g transform="translate(-6,-158) scale(1,1)"><rect fill="#ffffff" stroke="none" x="976" y="584" width="184.25244140625" height="132"/></g><g transform="translate(-6,-158) scale(1,1)"><path fill="none" stroke="#000000" d="M 976 584 L 1160.25244140625 584 L 1160.25244140625 716 L 976 716 L 976 584 Z Z" stroke-miterlimit="10"/></g><g transform="translate(-6,-158) scale(1,1)"><path fill="none" stroke="#000000" d="M 976 609 L 1160.25244140625 609" stroke-miterlimit="10"/></g><g transform="translate(-6,-158) scale(1,1)"><path fill="none" stroke="#000000" d="M 976 707 L 1160.25244140625 707" stroke-miterlimit="10"/></g><g transform="translate(-6,-158) scale(1,1)"><g><path fill="none" stroke="none"/><text fill="#000000" stroke="none" font-family="Arial" font-size="13px" font-style="normal" font-weight="bold" text-decoration="none" x="1036.32763671875" y="603.5">Publication</text></g></g><g transform="translate(-6,-158) scale(1,1)"><g><path fill="none" stroke="none"/><text fill="#000000" stroke="none" font-family="Arial" font-size="13px" font-style="normal" font-weight="normal" text-decoration="none" x="981" y="626.5">+idPublication</text></g></g><g transform="translate(-6,-158) scale(1,1)"><g><path fill="none" stroke="none"/><text fill="#000000" stroke="none" font-family="Arial" font-size="13px" font-style="normal" font-weight="normal" text-decoration="none" x="981" y="641.5">+titre</text></g></g><g transform="translate(-6,-158) scale(1,1)"><g><path fill="none" stroke="none"/><text fill="#000000" stroke="none" font-family="Arial" font-size="13px" font-style="normal" font-weight="normal" text-decoration="none" x="981" y="656.5">+annéePublication</text></g></g><g transform="translate(-6,-158) scale(1,1)"><g><path fill="none" stroke="none"/><text fill="#000000" stroke="none" font-family="Arial" font-size="13px" font-style="normal" font-weight="normal" text-decoration="none" x="981" y="671.5">+nomConf_journal</text></g></g><g transform="translate(-6,-158) scale(1,1)"><g><path fill="none" stroke="none"/><text fill="#000000" stroke="none" font-family="Arial" font-size="13px" font-style="normal" font-weight="normal" text-decoration="none" x="981" y="686.5">+classeConf</text></g></g><g transform="translate(-6,-158) scale(1,1)"><g><path fill="none" stroke="none"/><text fill="#000000" stroke="none" font-family="Arial" font-size="13px" font-style="normal" font-weight="normal" text-decoration="none" x="981" y="701.5">+nbPages</text></g></g><g transform="translate(-6,-158) scale(1,1)"><rect fill="#C0C0C0" stroke="none" x="1039" y="447" width="72.2353515625" height="87" opacity="0.2"/></g><g transform="translate(-6,-158) scale(1,1)"><rect fill="#ffffff" stroke="none" x="1032" y="440" width="72.2353515625" height="87"/></g><g transform="translate(-6,-158) scale(1,1)"><path fill="none" stroke="#000000" d="M 1032 440 L 1104.2353515625 440 L 1104.2353515625 527 L 1032 527 L 1032 440 Z Z" stroke-miterlimit="10"/></g><g transform="translate(-6,-158) scale(1,1)"><path fill="none" stroke="#000000" d="M 1032 465 L 1104.2353515625 465" stroke-miterlimit="10"/></g><g transform="translate(-6,-158) scale(1,1)"><path fill="none" stroke="#000000" d="M 1032 475 L 1104.2353515625 475" stroke-miterlimit="10"/></g><g transform="translate(-6,-158) scale(1,1)"><g><path fill="none" stroke="none"/><text fill="#000000" stroke="none" font-family="Arial" font-size="13px" font-style="normal" font-weight="bold" text-decoration="none" x="1048.966796875" y="459.5">Auteur</text></g></g><g transform="translate(-6,-158) scale(1,1)"><rect fill="#C0C0C0" stroke="none" x="999" y="263" width="146.2744140625" height="87" opacity="0.2"/></g><g transform="translate(-6,-158) scale(1,1)"><rect fill="#ffffff" stroke="none" x="992" y="256" width="146.2744140625" height="87"/></g><g transform="translate(-6,-158) scale(1,1)"><path fill="none" stroke="#000000" d="M 992 256 L 1138.2744140625 256 L 1138.2744140625 343 L 992 343 L 992 256 Z Z" stroke-miterlimit="10"/></g><g transform="translate(-6,-158) scale(1,1)"><path fill="none" stroke="#000000" d="M 992 281 L 1138.2744140625 281" stroke-miterlimit="10"/></g><g transform="translate(-6,-158) scale(1,1)"><path fill="none" stroke="#000000" d="M 992 334 L 1138.2744140625 334" stroke-miterlimit="10"/></g><g transform="translate(-6,-158) scale(1,1)"><g><path fill="none" stroke="none"/><text fill="#000000" stroke="none" font-family="Arial" font-size="13px" font-style="normal" font-weight="bold" text-decoration="none" x="1041.285888671875" y="275.5">LaboExt</text></g></g><g transform="translate(-6,-158) scale(1,1)"><g><path fill="none" stroke="none"/><text fill="#000000" stroke="none" font-family="Arial" font-size="13px" font-style="normal" font-weight="normal" text-decoration="none" x="997" y="298.5">+idLabo</text></g></g><g transform="translate(-6,-158) scale(1,1)"><g><path fill="none" stroke="none"/><text fill="#000000" stroke="none" font-family="Arial" font-size="13px" font-style="normal" font-weight="normal" text-decoration="none" x="997" y="313.5">+nom</text></g></g><g transform="translate(-6,-158) scale(1,1)"><g><path fill="none" stroke="none"/><text fill="#000000" stroke="none" font-family="Arial" font-size="13px" font-style="normal" font-weight="normal" text-decoration="none" x="997" y="328.5">+pays</text></g></g><g transform="translate(-6,-158) scale(1,1)"><path fill="none" stroke="#000000" d="M 96 527 L 154 409" stroke-miterlimit="10"/></g><g transform="translate(-6,-158) scale(1,1)"><g><path fill="none" stroke="none"/><text fill="#000000" stroke="none" font-family="Arial" font-size="13px" font-style="normal" font-weight="normal" text-decoration="none" x="125.5" y="475.5">+estAffilié</text></g></g><g transform="translate(-6,-158) scale(1,1)"><g><path fill="none" stroke="none"/><text fill="#000000" stroke="none" font-family="Arial" font-size="13px" font-style="normal" font-weight="normal" text-decoration="none" x="112.5" y="519.5">1</text></g></g><g transform="translate(-6,-158) scale(1,1)"><g><path fill="none" stroke="none"/><text fill="#000000" stroke="none" font-family="Arial" font-size="13px" font-style="normal" font-weight="normal" text-decoration="none" x="151.5" y="427.5">0..*</text></g></g><g transform="translate(-6,-158) scale(1,1)"><path fill="none" stroke="#000000" d="M 755 852 L 1288 852 L 1288 216 L 549 216" stroke-miterlimit="10"/></g><g transform="translate(-6,-158) scale(1,1)"><g><path fill="none" stroke="none"/><text fill="#000000" stroke="none" font-family="Arial" font-size="13px" font-style="normal" font-weight="normal" text-decoration="none" x="1184.127685546875" y="540.5">+participeJPO</text></g></g><g transform="translate(-6,-158) scale(1,1)"><g><path fill="none" stroke="none"/><text fill="#000000" stroke="none" font-family="Arial" font-size="13px" font-style="normal" font-weight="normal" text-decoration="none" x="766.5" y="870.5">0..*</text></g></g><g transform="translate(-6,-158) scale(1,1)"><g><path fill="none" stroke="none"/><text fill="#000000" stroke="none" font-family="Arial" font-size="13px" font-style="normal" font-weight="normal" text-decoration="none" x="560.5" y="209.5">1..*</text></g></g><g transform="translate(-6,-158) scale(1,1)"><path fill="none" stroke="#000000" d="M 316 799 L 385 489" stroke-miterlimit="10"/></g><g transform="translate(-6,-158) scale(1,1)"><g><path fill="none" stroke="none"/><text fill="#000000" stroke="none" font-family="Arial" font-size="13px" font-style="normal" font-weight="normal" text-decoration="none" x="342.5" y="691.5">+préside</text></g></g><g transform="translate(-6,-158) scale(1,1)"><g><path fill="none" stroke="none"/><text fill="#000000" stroke="none" font-family="Arial" font-size="13px" font-style="normal" font-weight="normal" text-decoration="none" x="322.5" y="786.5">0..*</text></g></g><g transform="translate(-6,-158) scale(1,1)"><g><path fill="none" stroke="none"/><text fill="#000000" stroke="none" font-family="Arial" font-size="13px" font-style="normal" font-weight="normal" text-decoration="none" x="365.641357421875" y="508.5">1</text></g></g><g transform="translate(-6,-158) scale(1,1)"><path fill="none" stroke="#000000" d="M 1068 528 L 1068 583" stroke-miterlimit="10"/></g><g transform="translate(-6,-158) scale(1,1)"><g><path fill="none" stroke="none"/><text fill="#000000" stroke="none" font-family="Arial" font-size="13px" font-style="normal" font-weight="normal" text-decoration="none" x="1071.944091796875" y="564.5">+collabore</text></g></g><g transform="translate(-6,-158) scale(1,1)"><g><path fill="none" stroke="none"/><text fill="#000000" stroke="none" font-family="Arial" font-size="13px" font-style="normal" font-weight="normal" text-decoration="none" x="1071.5" y="546.5">0..*</text></g></g><g transform="translate(-6,-158) scale(1,1)"><g><path fill="none" stroke="none"/><text fill="#000000" stroke="none" font-family="Arial" font-size="13px" font-style="normal" font-weight="normal" text-decoration="none" x="1045.5" y="579.5">0..*</text></g></g><g transform="translate(-6,-158) scale(1,1)"><path fill="none" stroke="#000000" d="M 550 282 L 975 584" stroke-miterlimit="10"/></g><g transform="translate(-6,-158) scale(1,1)"><g><path fill="none" stroke="none"/><text fill="#000000" stroke="none" font-family="Arial" font-size="13px" font-style="normal" font-weight="normal" text-decoration="none" x="748.5" y="426.5">+publie</text></g></g><g transform="translate(-6,-158) scale(1,1)"><g><path fill="none" stroke="none"/><text fill="#000000" stroke="none" font-family="Arial" font-size="13px" font-style="normal" font-weight="normal" text-decoration="none" x="559.5" y="276.5">1..*</text></g></g><g transform="translate(-6,-158) scale(1,1)"><g><path fill="none" stroke="none"/><text fill="#000000" stroke="none" font-family="Arial" font-size="13px" font-style="normal" font-weight="normal" text-decoration="none" x="940.5" y="587.5">0..*</text></g></g><g transform="translate(-6,-158) scale(1,1)"><path fill="none" stroke="#000000" d="M 1066 344 L 1067 439" stroke-miterlimit="10"/></g><g transform="translate(-6,-158) scale(1,1)"><g><path fill="none" stroke="none"/><text fill="#000000" stroke="none" font-family="Arial" font-size="13px" font-style="normal" font-weight="normal" text-decoration="none" x="1065.5" y="396.5">+travaille</text></g></g><g transform="translate(-6,-158) scale(1,1)"><g><path fill="none" stroke="none"/><text fill="#000000" stroke="none" font-family="Arial" font-size="13px" font-style="normal" font-weight="normal" text-decoration="none" x="1042.5" y="436.5">0..*</text></g></g><g transform="translate(-6,-158) scale(1,1)"><g><path fill="none" stroke="none"/><text fill="#000000" stroke="none" font-family="Arial" font-size="13px" font-style="normal" font-weight="normal" text-decoration="none" x="1054.5" y="363.5">1</text></g></g><g transform="translate(-6,-158) scale(1,1)"><path fill="none" stroke="#000000" d="M 879 711 L 748 676" stroke-miterlimit="10"/></g><g transform="translate(-6,-158) scale(1,1)"><g><path fill="none" stroke="none"/><text fill="#000000" stroke="none" font-family="Arial" font-size="13px" font-style="normal" font-weight="normal" text-decoration="none" x="749.47998046875" y="724.5">+partenaireParticipe</text></g></g><g transform="translate(-6,-158) scale(1,1)"><g><path fill="none" stroke="none"/><text fill="#000000" stroke="none" font-family="Arial" font-size="13px" font-style="normal" font-weight="normal" text-decoration="none" x="851.5" y="699.5">1..*</text></g></g><g transform="translate(-6,-158) scale(1,1)"><g><path fill="none" stroke="none"/><text fill="#000000" stroke="none" font-family="Arial" font-size="13px" font-style="normal" font-weight="normal" text-decoration="none" x="749.5" y="667.5">1..*</text></g></g><g transform="translate(-6,-158) scale(1,1)"><path fill="none" stroke="#000000" d="M 465 456 L 559 456" stroke-miterlimit="10"/></g><g transform="translate(-6,-158) scale(1,1)"><g><path fill="none" stroke="none"/><text fill="#000000" stroke="none" font-family="Arial" font-size="13px" font-style="normal" font-weight="normal" text-decoration="none" x="484.220458984375" y="447.5">+encadre</text></g></g><g transform="translate(-6,-158) scale(1,1)"><g><path fill="none" stroke="none"/><text fill="#000000" stroke="none" font-family="Arial" font-size="13px" font-style="normal" font-weight="normal" text-decoration="none" x="476.5" y="474.5">1..*</text></g></g><g transform="translate(-6,-158) scale(1,1)"><g><path fill="none" stroke="none"/><text fill="#000000" stroke="none" font-family="Arial" font-size="13px" font-style="normal" font-weight="normal" text-decoration="none" x="527.5" y="474.5">0..*</text></g></g><g transform="translate(-6,-158) scale(1,1)"><path fill="none" stroke="#000000" d="M 543 571 L 435 489" stroke-miterlimit="10"/></g><g transform="translate(-6,-158) scale(1,1)"><g><path fill="none" stroke="none"/><text fill="#000000" stroke="none" font-family="Arial" font-size="13px" font-style="normal" font-weight="normal" text-decoration="none" x="508" y="536.5">+porte</text></g></g><g transform="translate(-6,-158) scale(1,1)"><g><path fill="none" stroke="none"/><text fill="#000000" stroke="none" font-family="Arial" font-size="13px" font-style="normal" font-weight="normal" text-decoration="none" x="464.5" y="511.5">1</text></g></g><g transform="translate(-6,-158) scale(1,1)"><g><path fill="none" stroke="none"/><text fill="#000000" stroke="none" font-family="Arial" font-size="13px" font-style="normal" font-weight="normal" text-decoration="none" x="507.5" y="581.5">0..*</text></g></g><g transform="translate(-6,-158) scale(1,1)"><path fill="none" stroke="#000000" d="M 544 657 L 423 657 L 423 488" stroke-miterlimit="10"/></g><g transform="translate(-6,-158) scale(1,1)"><g><path fill="none" stroke="none"/><text fill="#000000" stroke="none" font-family="Arial" font-size="13px" font-style="normal" font-weight="normal" text-decoration="none" x="406.5" y="678.5">+participeProjet</text></g></g><g transform="translate(-6,-158) scale(1,1)"><g><path fill="none" stroke="none"/><text fill="#000000" stroke="none" font-family="Arial" font-size="13px" font-style="normal" font-weight="normal" text-decoration="none" x="503.5" y="642.5">0..*</text></g></g><g transform="translate(-6,-158) scale(1,1)"><g><path fill="none" stroke="none"/><text fill="#000000" stroke="none" font-family="Arial" font-size="13px" font-style="normal" font-weight="normal" text-decoration="none" x="395.5" y="508.5">1..*</text></g></g><g transform="translate(-6,-158) scale(1,1)"><path fill="none" stroke="#000000" d="M 617 423 L 530 301" stroke-miterlimit="10"/></g><g transform="translate(-6,-158) scale(1,1)"><path fill="#FFFFFF" stroke="none" d="M 548.6556800587397 312.6604288748718 L 530 301 L 534.9463895482162 322.4367262061467"/></g><g transform="translate(-6,-158) scale(1,1)"><path fill="none" stroke="#000000" d="M 548.6556800587397 312.6604288748718 L 530 301 L 534.9463895482162 322.4367262061467 L 548.6556800587397 312.6604288748718" stroke-miterlimit="10"/></g><g transform="translate(-6,-158) scale(1,1)"><path fill="none" stroke="#000000" d="M 405 423 L 455 301" stroke-miterlimit="10"/></g><g transform="translate(-6,-158) scale(1,1)"><path fill="#FFFFFF" stroke="none" d="M 455.0823282412784 322.9998459553854 L 455 301 L 439.5019745975786 316.6144551178036"/></g><g transform="translate(-6,-158) scale(1,1)"><path fill="none" stroke="#000000" d="M 455.0823282412784 322.9998459553854 L 455 301 L 439.5019745975786 316.6144551178036 L 455.0823282412784 322.9998459553854" stroke-miterlimit="10"/></g><g transform="translate(-6,-158) scale(1,1)"><path fill="none" stroke="#000000" d="M 269 265 L 371 423" stroke-miterlimit="10"/></g><g transform="translate(-6,-158) scale(1,1)"><path fill="#FFFFFF" stroke="none" d="M 352.90298750304646 410.49007839012944 L 371 423 L 367.04933014663806 401.3576293417348"/></g><g transform="translate(-6,-158) scale(1,1)"><path fill="none" stroke="#000000" d="M 352.90298750304646 410.49007839012944 L 371 423 L 367.04933014663806 401.3576293417348 L 352.90298750304646 410.49007839012944" stroke-miterlimit="10"/></g><g transform="translate(-6,-158) scale(1,1)"><path fill="none" stroke="#000000" d="M 265 408 L 319 428" stroke-miterlimit="10"/></g><g transform="translate(-6,-158) scale(1,1)"><path fill="#FFFFFF" stroke="none" d="M 297.0158765977327 428.8356543746561 L 319 428 L 302.86398038876735 413.04577413886244"/></g><g transform="translate(-6,-158) scale(1,1)"><path fill="none" stroke="#000000" d="M 297.0158765977327 428.8356543746561 L 319 428 L 302.86398038876735 413.04577413886244 L 297.0158765977327 428.8356543746561" stroke-miterlimit="10"/></g><g transform="translate(-6,-158) scale(1,1)"><path fill="none" stroke="#000000" d="M 378 838 L 455 841" stroke-miterlimit="10"/></g><g transform="translate(-6,-158) scale(1,1)"><path fill="#FFFFFF" stroke="none" d="M 434.36229360724076 848.6213564964687 L 455 841 L 435.01782500104986 831.7960507220362"/></g><g transform="translate(-6,-158) scale(1,1)"><path fill="none" stroke="#000000" d="M 434.36229360724076 848.6213564964687 L 455 841 L 435.01782500104986 831.7960507220362 L 434.36229360724076 848.6213564964687" stroke-miterlimit="10"/></g><g transform="translate(-6,-158) scale(1,1)"><path fill="none" stroke="#000000" d="M 647 838 L 549 841" stroke-miterlimit="10"/></g><g transform="translate(-6,-158) scale(1,1)"><path fill="#FFFFFF" stroke="none" d="M 569.0582279607802 831.9629932459151 L 549 841 L 569.5734377670954 848.7931802522112"/></g><g transform="translate(-6,-158) scale(1,1)"><path fill="none" stroke="#000000" d="M 569.0582279607802 831.9629932459151 L 549 841 L 569.5734377670954 848.7931802522112 L 569.0582279607802 831.9629932459151" stroke-miterlimit="10"/></g><g transform="translate(-6,-158) scale(1,1)"><rect fill="#C0C0C0" stroke="none" x="823" y="311" width="82.35986328125" height="87" opacity="0.2"/></g><g transform="translate(-6,-158) scale(1,1)"><rect fill="#ffffff" stroke="none" x="816" y="304" width="82.35986328125" height="87"/></g><g transform="translate(-6,-158) scale(1,1)"><path fill="none" stroke="#000000" d="M 816 304 L 898.35986328125 304 L 898.35986328125 391 L 816 391 L 816 304 Z Z" stroke-miterlimit="10"/></g><g transform="translate(-6,-158) scale(1,1)"><path fill="none" stroke="#000000" d="M 816 329 L 898.35986328125 329" stroke-miterlimit="10"/></g><g transform="translate(-6,-158) scale(1,1)"><path fill="none" stroke="#000000" d="M 816 382 L 898.35986328125 382" stroke-miterlimit="10"/></g><g transform="translate(-6,-158) scale(1,1)"><g><path fill="none" stroke="none"/><text fill="#000000" stroke="none" font-family="Arial" font-size="13px" font-style="normal" font-weight="bold" text-decoration="none" x="829.35498046875" y="323.5">Personne</text></g></g><g transform="translate(-6,-158) scale(1,1)"><g><path fill="none" stroke="none"/><text fill="#000000" stroke="none" font-family="Arial" font-size="13px" font-style="normal" font-weight="normal" text-decoration="none" x="821" y="346.5">+idPersonne</text></g></g><g transform="translate(-6,-158) scale(1,1)"><g><path fill="none" stroke="none"/><text fill="#000000" stroke="none" font-family="Arial" font-size="13px" font-style="normal" font-weight="normal" text-decoration="none" x="821" y="361.5">+nom</text></g></g><g transform="translate(-6,-158) scale(1,1)"><g><path fill="none" stroke="none"/><text fill="#000000" stroke="none" font-family="Arial" font-size="13px" font-style="normal" font-weight="normal" text-decoration="none" x="821" y="376.5">+prénom</text></g></g><g transform="translate(-6,-158) scale(1,1)"><path fill="none" stroke="#000000" d="M 550 254 L 815 334" stroke-miterlimit="10"/></g><g transform="translate(-6,-158) scale(1,1)"><path fill="#FFFFFF" stroke="none" d="M 793.1088395635157 336.18565659336167 L 815 334 L 797.9751194088082 320.06610460583045"/></g><g transform="translate(-6,-158) scale(1,1)"><path fill="none" stroke="#000000" d="M 793.1088395635157 336.18565659336167 L 815 334 L 797.9751194088082 320.06610460583045 L 793.1088395635157 336.18565659336167" stroke-miterlimit="10"/></g><g transform="translate(-6,-158) scale(1,1)"><path fill="none" stroke="#000000" d="M 1031 459 L 899 374" stroke-miterlimit="10"/></g><g transform="translate(-6,-158) scale(1,1)"><path fill="#FFFFFF" stroke="none" d="M 920.6469056110541 377.92574546629226 L 899 374 L 911.5307525088539 392.0825949897091"/></g><g transform="translate(-6,-158) scale(1,1)"><path fill="none" stroke="#000000" d="M 920.6469056110541 377.92574546629226 L 899 374 L 911.5307525088539 392.0825949897091 L 920.6469056110541 377.92574546629226" stroke-miterlimit="10"/></g></g></svg>